<svg xmlns="http://www.w3.org/2000/svg" width="700" height="400" viewBox="0 0 700 400">
  <defs>
    <linearGradient id="grad">
      <stop offset="0%" stop-color="red" />
      <stop offset="100%" stop-color="blue" />
    </linearGradient>
  </defs>
  <path fill="url(#grad)" d="m21.396 329.097 210.253-165.83c13.108-10.339 31.941-8.957 43.4 3.184l107.207 113.594 203.12-196.862-147.095-1.456c-17.8-.177-32.086-14.749-31.91-32.549.177-17.8 14.749-32.086 32.549-31.91l217.02 2.149c17.547.174 31.73 14.353 31.91 31.9l2.148 210.574c.182 17.8-14.1 32.377-31.9 32.558-17.8.182-32.376-14.1-32.558-31.9l-1.298-127.265-220.577 213.78a32.23 32.23 0 0 1-45.871-1.022L248.412 232.144 61.316 379.71c-13.977 11.024-34.243 8.63-45.267-5.347-11.023-13.976-8.63-34.243 5.347-45.266z"/>
</svg>
