<?xml version="1.0" encoding="UTF-8"?>
<svg width="236px" height="47px" viewBox="0 0 236 47" version="1.1" xmlns="http://www.w3.org/2000/svg" xmlns:xlink="http://www.w3.org/1999/xlink">
    <title>TechHive logo flat Copy</title>
    <defs>
        <polygon id="path-1" points="0 0 90.3786552 0 90.3786552 37.5263668 0 37.5263668"></polygon>
        <polygon id="path-3" points="-6.33283552e-15 3.16641776e-15 23.2637978 3.16641776e-15 23.2637978 15.9213963 -6.33283552e-15 15.9213963"></polygon>
    </defs>
    <g id="Logos" stroke="none" stroke-width="1" fill="none" fill-rule="evenodd">
        <g transform="translate(-93.000000, -57.000000)" id="Group">
            <g transform="translate(93.500000, 57.644621)" id="TechHive-logo-flat-Copy">
                <path d="M117.806898,1.48553655 L122.491399,1.48553655 L122.491399,17.4739818 C125.3439,15.6918927 127.990964,13.9098036 132.115304,13.9098036 C137.716474,13.9098036 140.363983,18.1361935 140.363983,22.7698925 L140.363983,41.4062931 L135.679482,41.4062931 L135.679482,22.7698925 C135.679482,19.6130235 133.948195,18.1865501 131.555588,18.1865501 C127.78731,18.1865501 125.903616,19.1549121 122.491399,20.9370011 L122.491399,41.4062931 L117.806898,41.4062931 L117.806898,1.48553655 Z M102.429416,14.1134582 C105.076926,14.1134582 110.423639,14.6223719 114.241828,15.5390404 L114.241828,18.696355 C114.241828,18.696355 107.775684,18.3906503 103.243589,18.3906503 C100.137522,18.3906503 98.2025808,18.899564 98.2025808,28.0658032 C98.2025808,35.6010231 99.5773607,37.3327556 103.243589,37.3327556 C107.92809,37.3327556 114.598335,36.8238419 114.598335,36.8238419 L114.598335,40.1335633 C110.524798,41.5083432 106.65536,41.6099477 102.429416,41.6607499 C97.388408,41.6607499 93.5180795,39.5217082 93.5180795,27.8617029 C93.5180795,16.2524999 97.2360013,14.1134582 102.429416,14.1134582 L102.429416,14.1134582 Z M83.0291995,26.0796138 C85.0661911,26.0796138 85.9824139,25.2649955 85.9824139,23.7373632 C85.9824139,18.899564 85.1165477,18.3906503 80.1775896,18.3906503 C74.9324811,18.3906503 72.845133,18.4927004 72.8963808,26.0796138 L83.0291995,26.0796138 Z M80.0242916,14.1642604 C86.796141,14.1642604 90.6669152,14.8260265 90.6669152,23.7881654 C90.6669152,27.9637531 88.4267147,30.2039536 83.5381132,30.2039536 L72.8963808,30.2039536 C72.8963808,36.1616303 74.2194673,37.3831122 78.1918459,37.3831122 C82.7230492,37.3831122 86.3389209,37.4343601 90.1575559,36.8238419 L90.1575559,40.2347221 C86.0831271,41.457541 81.3482693,41.6607499 77.1223251,41.6607499 C70.2479799,41.6607499 68.2118796,38.1478196 68.2118796,27.7596528 C68.2118796,15.7939428 71.6227598,14.1642604 80.0242916,14.1642604 L80.0242916,14.1642604 Z M47.8941031,4.13438316 L74.2194673,4.13438316 L74.2194673,8.66514081 L63.2720302,8.66514081 L63.2720302,41.4062931 L58.5875289,41.4062931 L58.5875289,8.66514081 L47.8941031,8.66514081 L47.8941031,4.13438316 Z" id="Fill-1" fill="#FFFFFF"></path>
                <g id="Group-5" transform="translate(144.621345, 4.134472)">
                    <mask id="mask-2" fill="white">
                        <use xlink:href="#path-1"></use>
                    </mask>
                    <g id="Clip-4"></g>
                    <path d="M74.2376695,21.5374759 L81.0099646,21.5374759 C82.486349,21.5374759 83.2501651,20.8249076 83.2501651,19.5009299 C83.2501651,16.0891585 82.7412514,15.4786403 79.3290343,15.4786403 C75.5607559,15.4786403 74.1864216,15.6822949 74.2376695,21.5374759 L74.2376695,21.5374759 Z M89.8696078,31.2638766 L89.8696078,36.100339 C86.0509728,37.5263668 80.2452572,37.5263668 76.019313,37.5263668 C69.1463047,37.5263668 67.1088675,33.5548794 67.1088675,23.6252697 C67.1088675,12.0160666 70.3682322,10.0298773 78.9221708,10.0298773 C86.7630954,10.0298773 90.3789671,10.8957435 90.3789671,19.8569913 C90.3789671,24.6947905 87.731903,26.6805342 82.8433015,26.6805342 L74.2376695,26.6805342 C74.2376695,31.5183334 76.0710065,31.8231469 79.9404437,31.8231469 C84.0652291,31.8231469 86.0509728,31.8748404 89.8696078,31.2638766 L89.8696078,31.2638766 Z M59.6654481,10.2339775 L53.6057213,28.9211803 L47.6997381,10.2339775 L40.0620224,10.2339775 L49.4813815,37.2714643 L57.4760498,37.2714643 L67.3036094,10.2339775 L59.6654481,10.2339775 Z M30.4292047,37.2714643 L37.5580067,37.2714643 L37.5580067,10.2335319 L30.4292047,10.2335319 L30.4292047,37.2714643 Z M36.743834,0.406417918 L31.3966755,0.406417918 C30.5825027,0.406417918 30.1747479,0.915777217 30.1747479,1.72994995 L30.1747479,6.2116879 C30.1747479,6.92381052 30.6836616,7.38192195 31.3966755,7.38192195 L36.743834,7.38192195 C37.4568479,7.38192195 37.8637115,6.9750584 37.8637115,6.2116879 L37.8637115,1.72994995 C37.8637115,1.0173817 37.5072045,0.406417918 36.743834,0.406417918 L36.743834,0.406417918 Z M19.9082391,0 L27.0374868,0 L27.0374868,37.2714643 L19.9082391,37.2714643 L19.9082391,22.5058379 L7.12880202,22.5058379 L7.12880202,37.2714643 L0,37.2714643 L0,0 L7.12880202,0 L7.12880202,15.9879996 L19.9082391,15.9879996 L19.9082391,0 Z" id="Fill-3" fill="#F8A520" mask="url(#mask-2)"></path>
                </g>
                <path d="M2.94833661,15.982535 C3.44878323,15.982535 3.9550231,15.8546381 4.41848213,15.5872579 L21.8962351,5.49632882 C23.3048832,4.68260171 23.7883958,2.88268727 22.9751143,1.47359357 C22.1618328,0.0658367643 20.3592446,-0.419012682 18.952379,0.395160056 L1.47239785,10.4860892 C0.0646410489,11.298925 -0.418425863,13.100622 0.395301241,14.5088244 C0.941648136,15.4535678 1.93140054,15.982535 2.94833661,15.982535" id="Fill-6" fill="#F8A520"></path>
                <g id="Group-10" transform="translate(17.231191, 29.789362)">
                    <mask id="mask-4" fill="white">
                        <use xlink:href="#path-3"></use>
                    </mask>
                    <g id="Clip-9"></g>
                    <path d="M18.8451971,0.395518799 L1.47305926,10.4262874 C0.0644111905,11.2386776 -0.418210087,13.0390376 0.395071383,14.4490226 C0.941418277,15.3928747 1.93072505,15.9213963 2.94899802,15.9213963 C3.44855337,15.9213963 3.95479324,15.7939451 4.41914353,15.5261192 L21.7908357,5.49668756 C23.1990382,4.68385172 23.6821051,2.88170911 22.8688236,1.47216978 C22.0546509,0.0657498741 20.2551821,-0.419099572 18.8451971,0.395518799" id="Fill-8" fill="#F7A600" mask="url(#mask-4)"></path>
                </g>
                <path d="M3.12480755,25.836387 C3.62525417,25.836387 4.13149403,25.7089357 4.59495306,25.4411099 L30.5575714,10.4517754 C31.9666651,9.63849389 32.4479495,7.83768818 31.634668,6.42948575 C30.8218322,5.02083768 29.0201352,4.53777077 27.6119328,5.35105224 L1.64976006,20.3399411 C0.242003254,21.1532226 -0.241509291,22.954474 0.571772179,24.363122 C1.11811907,25.3078654 2.10876275,25.836387 3.12480755,25.836387" id="Fill-11" fill="#F8A520"></path>
                <path d="M40.0315652,21.554694 C39.2182838,20.1464916 37.4165868,19.6638703 36.0083843,20.4771518 L10.2650178,35.340372 C8.85681535,36.1536534 8.3733028,37.9544591 9.18658427,39.3622159 C9.73293117,40.3069593 10.7235748,40.8354809 11.7405109,40.8354809 C12.2400663,40.8354809 12.7463061,40.7093666 13.2106564,40.4410951 L38.9531317,25.5774292 C40.3622254,24.7645934 40.8448467,22.9642333 40.0315652,21.554694" id="Fill-13" fill="#F8A520"></path>
                <path d="M40.1163693,11.6310558 C39.3021966,10.2219621 37.5013909,9.7393408 36.0927428,10.551731 L1.77315602,30.3668327 C0.36406232,31.1801142 -0.118558958,32.9809199 0.694722512,34.3900136 C1.24106941,35.334757 2.23037618,35.8632785 3.24864915,35.8632785 C3.74731324,35.8632785 4.25444437,35.7353817 4.71879466,35.4680014 L39.0392727,15.653791 C40.4470295,14.8396183 40.9296508,13.0397038 40.1163693,11.6310558" id="Fill-15" fill="#F8A520"></path>
            </g>
        </g>
    </g>
</svg>