<?xml version="1.0" encoding="utf-8"?>
<!-- Generator: Adobe Illustrator 23.1.1, SVG Export Plug-In . SVG Version: 6.00 Build 0)  -->
<svg version="1.1" id="Layer_1" xmlns="http://www.w3.org/2000/svg" xmlns:xlink="http://www.w3.org/1999/xlink" x="0px" y="0px"
	 viewBox="0 0 104 22.7" style="enable-background:new 0 0 104 22.7;" xml:space="preserve">
<style type="text/css">
	.st0{fill-rule:evenodd;clip-rule:evenodd;fill:#FFFFFF;}
</style>
<title>PCWorld España De IDG logo</title>
<desc>Created with Sketch.</desc>
<g id="Page-1">
	<g id="PCWorld-España-De-IDG-logo">
		<g id="PC-World-ES-Logo-Copy">
			<path id="Fill-1-Copy" class="st0" d="M103.1,22.2v-22h-3.7v8.1c-0.9-0.6-2-1-3.5-1c-4.7,0-7.2,3.5-7.2,7.6
				c0,4.1,2.5,7.6,7.2,7.6c1.6,0,2.6-0.4,3.6-1.1l0.1,0.8H103.1z M99.6,14.9c0,2.7-1,4.6-3.4,4.6c-2.4,0-3.7-1.9-3.7-4.6
				c0-2.7,1.4-4.6,3.7-4.6C98.6,10.3,99.6,12.1,99.6,14.9L99.6,14.9z M88.2,22.5l0.3-3c-1.4,0-1.8,0-1.8-2.3v-17h-3.7v18.5
				c0,2.1,1.2,3.8,3.8,3.8H88.2z M81.1,10.7l0.7-3.4h-1c-1.7,0-3.2,1-3.9,1.8l-0.1-1.6h-3.4v14.7h3.7v-10c0.4-0.8,1.5-1.5,2.7-1.5
				H81.1z M72.1,14.9c0-4.1-2.7-7.6-7.5-7.6c-4.7,0-7.5,3.5-7.5,7.6c0,4.1,2.7,7.6,7.5,7.6C69.3,22.5,72.1,19,72.1,14.9L72.1,14.9z
				 M68.3,14.9c0,2.7-1.4,4.6-3.7,4.6c-2.4,0-3.7-1.9-3.7-4.6c0-2.7,1.4-4.6,3.7-4.6C67,10.3,68.3,12.1,68.3,14.9L68.3,14.9z
				 M53.2,22.2l6.1-20.6h-3.9l-4,14.2L47.3,1.6h-2.6l-3.9,14.6L36.6,1.6h-3.9l5.8,20.6h3.7L46,8.8l3.8,13.4H53.2z M19.8,11.9
				c0-4.1,2-7.1,6.1-7.1c2.2,0,3.8,0.5,5.5,1.2l0.4-3.6c-1.5-0.7-3.7-1.2-5.9-1.2c-5.9,0-10.2,4.2-10.2,10.7
				c0,6.5,4.3,10.7,10.2,10.7c2.2,0,4.4-0.5,5.9-1.2l-0.4-3.6C29.6,18.5,28,19,25.8,19C21.8,19,19.8,16,19.8,11.9L19.8,11.9z
				 M14.9,8.1c0-5.6-3.1-6.5-8.9-6.5H0.2v20.6H4v-6.8h3.7C10.6,15.4,14.9,14,14.9,8.1L14.9,8.1z M11.1,8.2c0,2.8-1.2,3.7-3.9,3.7H4
				V4.8h3.1C10.2,4.8,11.1,5.8,11.1,8.2L11.1,8.2z"/>
		</g>
	</g>
</g>
</svg>
