<?xml version="1.0" encoding="utf-8"?>
<!-- Generator: Adobe Illustrator 23.1.1, SVG Export Plug-In . SVG Version: 6.00 Build 0)  -->
<svg version="1.1" id="Layer_1" xmlns="http://www.w3.org/2000/svg" xmlns:xlink="http://www.w3.org/1999/xlink" x="0px" y="0px"
	 viewBox="0 0 1626.4 175.5" style="enable-background:new 0 0 1626.4 175.5;" xml:space="preserve">
<style type="text/css">
	.st0{fill:#FFFFFF;}
</style>
<polygon class="st0" points="0,13.7 0,46.9 47,46.9 47,161.2 85,161.2 85,46.9 131.8,46.9 131.8,13.7 "/>
<polygon class="st0" points="261.5,161.1 261.5,128 191.4,128 191.4,103 259.9,103 259.9,69.9 191.4,69.9 191.4,46.9 261.5,46.9 
	261.5,13.7 153.4,13.7 153.4,161.1 "/>
<g>
	<path class="st0" d="M358.4,163.8c35.6,0,54.8-20.6,64.3-39.6L390,108.8c-4.9,11.7-17.5,21.4-31.6,21.4
		c-24.1,0-41.1-18.6-41.1-42.7s17-42.7,41.1-42.7c14.1,0,26.7,9.7,31.6,21.4l32.7-15.5C413,31.3,394,11.1,358.4,11.1
		c-45.3,0-79.8,30.7-79.8,76.2C278.6,132.9,313.1,163.8,358.4,163.8"/>
</g>
<polygon class="st0" points="577.1,161.1 577.1,13.7 539,13.7 539,68.8 477.8,68.8 477.8,13.7 439.8,13.7 439.8,161.1 477.8,161.1 
	477.8,101.9 539,101.9 539,161.1 "/>
<g>
	<path class="st0" d="M877.6,128h-23.9V46.9h24.1c27,0,40.7,17.7,40.7,40.4C918.5,109.2,903.4,128,877.6,128 M877.8,161.1
		c46.2,0,79.6-28.1,79.6-73.8S924,13.7,877.6,13.7h-61.9v147.4L877.8,161.1L877.8,161.1z"/>
</g>
<rect x="1128.9" y="13.7" class="st0" width="38" height="147.4"/>
<g>
	<path class="st0" d="M1252.9,163.8c39.6,0,61.4-19.7,61.4-49.3c0-54.8-83.3-41.1-83.3-59.9c0-6.2,4.9-10.6,15.9-10.6
		c14.6,0,30.7,5.1,43.1,15.2l20.8-27.2c-15.7-13.5-36.2-20.6-59.9-20.6c-37.8,0-58.8,22.1-58.8,46.9c0,56.8,83.5,40.7,83.5,60.8
		c0,7.1-8,12.2-21,12.2c-20.1,0-36.5-8.8-47.1-19.4l-20.1,28.5C1202.3,154.5,1223.1,163.8,1252.9,163.8"/>
	<path class="st0" d="M1405.9,130.2c-24.5,0-40.2-18.8-40.2-42.7c0-24.1,15.7-42.7,40.2-42.7c24.3,0,40,18.6,40,42.7
		C1445.9,111.4,1430.2,130.2,1405.9,130.2 M1405.9,163.8c45.1,0,78.7-31.4,78.7-76.2s-33.6-76.2-78.7-76.2S1327,42.8,1327,87.6
		S1360.9,163.8,1405.9,163.8"/>
	<path class="st0" d="M1568.7,78.5h-30.1V46.9h30.1c9.9,0,18.3,5.7,18.3,15.7C1587.1,73,1578.7,78.5,1568.7,78.5 M1626.4,161.1
		l-30.1-54.1c13.7-4.9,29.4-18.6,29.4-44.2c0-27.4-18.6-49.1-51.3-49.1h-73.8v147.4h38v-49.5h19.4l24.8,49.5H1626.4z"/>
</g>
<polygon class="st0" points="721.2,0 639.9,161.3 683,161.3 721.3,83.5 759.6,161.3 802.7,161.3 "/>
<polygon class="st0" points="1070.5,13.7 1032.2,91.5 993.9,13.7 950.8,13.7 1032,175.1 1113.6,13.7 "/>
</svg>
