<?xml version="1.0" encoding="utf-8"?>
<!-- Generator: Adobe Illustrator 23.1.1, SVG Export Plug-In . SVG Version: 6.00 Build 0)  -->
<svg version="1.1" id="Layer_1" xmlns="http://www.w3.org/2000/svg" xmlns:xlink="http://www.w3.org/1999/xlink" x="0px" y="0px"
	 viewBox="0 0 801 142.5" style="enable-background:new 0 0 801 142.5;" xml:space="preserve">
<style type="text/css">
	.st0{fill:#FFFFFF;}
</style>
<title>MW logo</title>
<desc>Created with Sketch.</desc>
<g id="Page-1_1_">
	<g id="New-IDG-Brand-Mastheads" transform="translate(-241.000000, -71.000000)">
		<g id="MW-logo" transform="translate(241.000000, 71.000000)">
			<g id="Page-1">
				<g id="Clip-2">
				</g>
				<path id="Fill-1" class="st0" d="M135.1,139V11h-25.7l-41,70.4h-0.6L26.7,11H0.4v128h26.9V64.9h1.2l35.5,60h8l35.5-60h1.2V139
					C108.8,139,135.1,139,135.1,139z M159,69.8c6.7-3.7,22-9.2,33.7-9.2s19.6,4.3,19.6,14.7v9.8c-6.7-5.5-17.1-8-26.9-8
					c-26.3,0-41,14.1-41,31.8c0,18.4,14.7,32.5,37.4,32.5c16.5,0,24.5-6.7,31.8-13.5c0.6,3.7,1.2,8,2.4,11h25.7
					c-2.4-7.3-2.4-14.1-2.4-18.4V69.2c0-21.4-22-28.8-43.5-28.8c-18.4,0-34.9,5.5-44.1,10.4L159,69.8z M187.2,122.4
					c-11,0-17.1-5.5-17.1-13.5c0-7.3,5.5-13.5,20.8-13.5c9.8,0,17.8,3.1,22,6.7v9.2C209.8,114.5,200.6,122.4,187.2,122.4
					L187.2,122.4z M339.6,56.3c-12.2-11-27.6-16.5-42.2-16.5c-28.2,0-50.8,20.2-50.8,50.8s23.3,51.4,50.8,51.4
					c23.9,0,39.8-14.1,44.1-19l-15.9-15.9c-7.3,7.3-15.9,12.9-25.1,12.9c-14.1,0-26.3-11.6-26.3-29.4s11-28.2,25.1-28.2
					c7.3,0,16.5,3.7,23.9,11.6L339.6,56.3z M403.3,43.4l-17.1,61.2H385l-15.3-61.2h-26.3l30,95.5h24.5l16.5-58.8h1.2l16.5,58.8h24.5
					l30-95.5h-26.9L445,104.6h-1.3l-17.1-61.2C426.6,43.4,403.3,43.4,403.3,43.4z M482.9,90.6c0,28.2,20.8,51.4,50.8,51.4
					c30.6,0,51.4-22.7,51.4-51.4c0-28.2-20.8-50.8-51.4-50.8C503.7,40.4,482.9,62.4,482.9,90.6L482.9,90.6z M509.2,90.6
					c0-15.9,9.2-28.8,24.5-28.8c15.9,0,25.1,12.9,25.1,28.8s-9.2,29.4-25.1,29.4C518.4,120.6,509.2,106.5,509.2,90.6L509.2,90.6z
					 M636.6,65.5c3.7,0,9.8,1.8,12.9,2.4l7.3-23.9c-3.1-2.4-9.8-3.7-14.7-3.7c-12.2,0-19,7.3-24.5,17.8c-0.6-4.9-1.2-10.4-1.8-14.1
					h-23.3c1.8,10.4,2.4,19,2.4,26.9v68.6h25.8V77.7C625.6,70.4,629.9,65.5,636.6,65.5L636.6,65.5z M664.2,139h25.7V1.8h-25.7V139z
					 M800.7,139c-1.8-11-1.8-19.6-1.8-27.6V1.8h-25.7V52c-8-7.3-17.1-11.6-26.3-11.6c-25.1,0-45.9,20.2-45.9,50.8
					s20.7,50.8,45.8,50.8c12.9,0,23.3-7.3,29.4-14.1c0,3.1,0.6,8,1.2,11.6h23.3V139z M749.9,62.4c8,0,15.9,4.3,22.7,11v36.1
					c-3.1,3.7-11.6,10.4-22.7,10.4c-12.2,0-22-11.6-22-28.8S737.6,62.4,749.9,62.4L749.9,62.4z"/>
			</g>
		</g>
	</g>
</g>
</svg>
