<svg xmlns="http://www.w3.org/2000/svg" width="328.7" height="40" viewBox="0 0 328.7 40"><path d="M.5.11H25.18l.45,12.31H24.24c-.45-2.85-1-6.13-3.57-8.69A7.64,7.64,0,0,0,16.6,1.44l0,36.72h2.56V39.5H6.48V38.17H9L9,1.45A9.53,9.53,0,0,0,5.23,3.84c-2.67,2.68-3.34,6-3.89,8.59H0Z"/><polygon points="39.74 6.66 50.42 6.65 50.42 7.77 48.29 7.77 48.3 38.37 50.44 38.37 50.44 39.48 39.76 39.49 39.76 38.37 41.94 38.37 41.93 22.86 35.62 22.87 35.63 38.38 37.86 38.37 37.86 39.49 27.13 39.49 27.13 38.38 29.27 38.38 29.25 7.78 27.11 7.78 27.11 6.67 37.84 6.66 37.84 7.77 35.61 7.78 35.62 21.66 41.93 21.66 41.93 7.77 39.74 7.77 39.74 6.66"/><path d="M54.18,6.65H72.62v8.64h-1.2a10.07,10.07,0,0,0-2.61-5.9c-1.76-1.71-3.62-1.67-6.18-1.62V22c1.44,0,2.7-.05,3.67-1.07,1.39-1.35,1.53-3.67,1.62-5h1.16V29.12H67.94c-.09-1.53-.19-3.39-1.58-4.78A5.11,5.11,0,0,0,62.64,23V38.41c2.6,0,4.64,0,6.64-2a10.83,10.83,0,0,0,2.92-6.73h1.16L73,39.47H54.2V38.41h2.14l0-30.65H54.18Z"/><path d="M88.44.07H101c2.29,0,5.41,0,8.08,1.45a8.71,8.71,0,0,1,4.46,7.79,8.75,8.75,0,0,1-2.39,6.19c-2.23,2.34-4.68,2.73-7.41,3.24v.05c1.45.17,5.57.56,8.36,3.28a9.39,9.39,0,0,1,2.57,6.69,10.53,10.53,0,0,1-2.84,7.36c-3.29,3.34-7.35,3.34-10.75,3.35H88.46V38.13H91L91,1.4H88.44Zm10.2,18a11.07,11.07,0,0,0,3.63-.34c2.61-.94,3-3.4,3-8.19,0-3.68-.17-6.52-2.62-7.63-1.12-.56-2.12-.5-4-.5Zm0,20.06c2.45.05,4.23.05,5.62-1.4,1.84-1.89,1.84-5.23,1.84-8.24,0-3.79-.23-6.19-1.79-7.69-1.28-1.28-3-1.39-5.68-1.34Z"/><path d="M122.07,9.22A9.7,9.7,0,0,1,128.8,6.1,8.63,8.63,0,0,1,135,8.84c3.49,3.53,4.47,8.63,4.47,13.6a24.18,24.18,0,0,1-2.32,11c-1.67,3.34-4.64,6.55-8.91,6.55A8.29,8.29,0,0,1,122,37.26c-3.49-3.57-4.65-8.49-4.65-13.65,0-6.91,2-11.65,4.68-14.39m2.56,20c.05,1.21.05,2.42.15,3.63.09,1.62.37,6,3.57,6,2.46,0,3.16-2.65,3.35-3.48.55-2.23.6-7.85.59-10.82,0-7.25,0-10.31-.33-12.91-.14-1.25-.46-4.55-3.3-4.55a3.36,3.36,0,0,0-2.27.93c-1.63,1.58-1.72,4.83-1.76,8.54Z"/><path d="M163.26,6.6V7.71a7.38,7.38,0,0,0-1.63,0c-.84.28-.88,1.16-.88,2V39.43h-3.71L145,10.64V36.69c0,1.63.47,1.63,2.51,1.63v1.11h-6.26V38.32c1.9,0,2.55,0,2.55-1.81l0-27.26c0-1.53-.65-1.53-2.55-1.53V6.61h9l9.44,22.33V9.43c0-1.72-.47-1.72-2.56-1.72V6.6Z"/><path d="M167.71,6.59h8.59c3.16,0,6.46,0,9.8,3.43,2.7,2.69,4.23,6.82,4.23,12.49a25.82,25.82,0,0,1-1.15,7.94,15.09,15.09,0,0,1-3.62,5.85c-2.88,2.84-5.43,3-8.87,3.12h-9V38.31h2.18V7.71h-2.19Zm8.52,31.71c2.55,0,5.24.05,6.35-4.6a53.88,53.88,0,0,0,.6-10.12V21.82a66.09,66.09,0,0,0-.42-8.78c-.89-5.39-3.81-5.38-6.55-5.34Z"/><path d="M206.7,0h12.6c2.28,0,5.4,0,8.08,1.44a8.76,8.76,0,0,1,4.46,7.8,8.71,8.71,0,0,1-2.4,6.19c-2.22,2.34-4.67,2.73-7.4,3.24v0c1.44.17,5.57.56,8.35,3.28A9.39,9.39,0,0,1,233,28.69a10.5,10.5,0,0,1-2.84,7.36c-3.28,3.34-7.35,3.34-10.75,3.34H206.72V38.06h2.56V1.34H206.7Zm10.21,18a11.26,11.26,0,0,0,3.62-.34c2.62-.95,3-3.4,3-8.19,0-3.68-.16-6.52-2.62-7.63-1.11-.56-2.12-.5-4-.5Zm0,20.06c2.45,0,4.23,0,5.63-1.4,1.83-1.89,1.83-5.24,1.83-8.25,0-3.78-.23-6.18-1.79-7.68-1.28-1.28-3-1.39-5.68-1.34Z"/><path d="M235.55,6.56h10.63V7.67H244l0,24.47a9.61,9.61,0,0,0,.46,3.67,3.76,3.76,0,0,0,3.58,2.27A3.92,3.92,0,0,0,250.89,37c1.48-1.48,1.53-3.8,1.57-5.43v-22c.05-1.86-.65-1.86-2.55-1.86V6.55h6.41V7.66c-1.58,0-2.51,0-2.51,1.95V31.3c-.09,2.13-.14,4.78-2.13,6.69-.47.46-1.86,1.85-5.48,1.86a9.17,9.17,0,0,1-6.5-2.18c-1.81-1.77-1.91-3.86-1.95-6.22l0-23.78h-2.18Z"/><path d="M258.62,6.55h11V7.65h-2.14l4.93,13.55,4.08-11.33a4.81,4.81,0,0,0,.23-1.21c0-1-.7-1-2.23-1V6.54h6.36V7.65c-1.81,0-2.23.28-2.92,2.09l-5,13.79V38.25H275v1.12H264.48V38.26h2.09V23.91L260.66,7.66h-2Z"/><path d="M283.13,6.53h18.44v8.64h-1.2a10,10,0,0,0-2.61-5.89c-1.76-1.72-3.62-1.67-6.18-1.63V21.9c1.44,0,2.7,0,3.67-1.07,1.39-1.35,1.53-3.67,1.62-5H298V29h-1.16c-.09-1.53-.19-3.39-1.58-4.78a5.15,5.15,0,0,0-3.72-1.3V38.29c2.6,0,4.64,0,6.64-2a10.83,10.83,0,0,0,2.92-6.73h1.16l-.41,9.84H283.15V38.29h2.14l0-30.64h-2.14Z"/><path d="M304.21,6.52H315c2.74,0,6.22.23,8.59,2.73a7.19,7.19,0,0,1,1.95,5.11,6.79,6.79,0,0,1-2.18,5.2c-2.23,2.18-5.29,2.46-6.92,2.65,4.09.88,7.76,1.67,8.64,7.38.14.83.42,4.92.52,5.8.14,1.3.23,2.37,1.21,2.37a2.19,2.19,0,0,0,1.3-.65l.6.84a6.65,6.65,0,0,1-4.46,1.81,5.08,5.08,0,0,1-3.62-1.44,6.57,6.57,0,0,1-1.76-4c-.14-1.21-.24-2.46-.33-3.72-.47-7-1.82-7.84-5.81-7.84V38.23h2.13v1.12H304.23V38.24h2V7.64h-2.05Zm8.51,15.09a7.76,7.76,0,0,0,3.53-.47c2-.83,2.41-2.74,2.41-6.59,0-2.14,0-4.55-1.3-5.9-1-1-2.19-1-4.65-1Z"/></svg>